<?xml version="1.0" standalone="no"?>
<!DOCTYPE svg PUBLIC "-//W3C//DTD SVG 20010904//EN"
 "http://www.w3.org/TR/2001/REC-SVG-20010904/DTD/svg10.dtd">
<svg version="1.0" xmlns="http://www.w3.org/2000/svg"
 width="804.000000pt" height="477.000000pt" viewBox="0 0 804.000000 477.000000"
 preserveAspectRatio="xMidYMid meet">
<metadata>
Created by potrace 1.16, written by Peter Selinger 2001-2019
</metadata>
<g transform="translate(0.000000,477.000000) scale(0.100000,-0.100000)"
fill="#000000" stroke="none">
<path d="M3227 3890 c4 -28 2 -41 -8 -44 -8 -3 -162 -17 -343 -31 -181 -14
-332 -27 -336 -30 -4 -2 -13 -100 -20 -217 -7 -117 -15 -230 -19 -250 l-6 -37
-225 150 c-124 83 -280 184 -346 225 l-122 74 -302 -25 c-167 -13 -304 -26
-306 -27 -5 -6 -24 -253 -41 -534 l-17 -291 37 -100 c20 -55 37 -109 37 -119
0 -24 -139 -444 -153 -461 -5 -7 -29 -13 -53 -13 -23 0 -54 -4 -68 -10 -24 -9
-26 -14 -26 -74 0 -36 5 -112 11 -168 l11 -103 98 -97 c101 -100 111 -106 233
-132 15 -4 39 -20 54 -36 14 -17 32 -30 40 -30 8 0 35 -11 61 -24 59 -30 174
-61 277 -76 123 -17 125 -18 125 -41 0 -38 60 -203 93 -254 71 -113 162 -187
272 -223 99 -33 301 -72 373 -72 189 0 374 121 507 334 9 14 23 13 145 -9 295
-53 271 -51 285 -31 12 16 32 13 317 -48 337 -72 501 -102 599 -112 59 -6 72
-3 140 26 41 18 85 42 99 54 17 14 35 20 56 18 l30 -3 12 -142 c22 -262 91
-447 208 -556 74 -70 100 -80 362 -137 209 -47 285 -49 362 -13 158 74 327
359 396 667 10 45 22 82 26 82 5 0 8 18 8 40 0 23 6 42 14 47 8 4 16 28 19 53
14 113 12 110 82 110 66 0 80 5 600 208 257 100 368 142 381 142 7 0 17 -20
23 -45 17 -68 55 -147 83 -172 28 -26 73 -36 246 -54 118 -12 124 -11 150 8
39 29 89 116 116 203 40 126 58 253 62 440 l5 175 30 8 c16 4 32 16 35 25 3 9
9 24 14 33 4 8 11 63 15 122 l7 106 -25 6 c-14 4 -33 5 -43 4 -40 -6 -62 18
-69 76 -4 30 -12 58 -19 63 -49 39 -218 108 -236 97 -8 -5 -51 2 -182 32 l-68
15 0 38 c0 78 -47 99 -218 100 -97 0 -107 2 -165 33 -34 17 -63 35 -65 40 -2
4 -10 7 -17 7 -7 0 -15 4 -17 8 -3 7 -75 59 -283 202 -55 38 -118 83 -140 99
-53 38 -138 52 -445 71 -305 19 -291 17 -330 54 -19 19 -41 31 -49 28 -8 -2
-11 0 -7 6 8 13 -14 21 -46 15 -14 -3 -29 0 -32 6 -13 20 -27 12 -16 -8 6 -12
26 -22 50 -26 41 -7 56 -25 20 -25 -11 0 -20 -2 -20 -5 0 -2 28 -46 61 -97
119 -180 233 -450 213 -505 -16 -45 -32 -39 -27 9 9 81 -73 269 -208 478 -74
114 -109 153 -151 169 -39 15 -378 27 -378 14 0 -13 95 -23 239 -24 64 -1 126
-4 139 -7 41 -12 23 -27 -31 -26 -28 1 -43 -1 -32 -3 41 -10 35 -21 -22 -42
-32 -12 -67 -25 -78 -30 -21 -10 -228 -78 -257 -85 -9 -3 -26 -10 -38 -16 -12
-6 -29 -13 -38 -15 -10 -1 -53 -17 -97 -33 -79 -30 -102 -38 -363 -128 -72
-26 -192 -70 -265 -99 -72 -29 -136 -50 -140 -48 -12 7 43 30 588 240 478 184
505 195 505 206 0 5 4 6 8 3 4 -2 26 4 47 14 l40 18 -105 2 c-58 1 -121 1
-140 1 -32 -1 -33 0 -17 13 10 7 27 12 37 9 14 -4 20 0 20 12 0 10 -5 15 -12
12 -7 -3 -65 -25 -128 -50 -63 -24 -158 -65 -210 -90 -100 -47 -253 -91 -358
-102 -76 -8 -312 4 -312 16 0 5 73 9 163 9 89 1 182 5 207 11 25 5 69 14 98
20 66 12 202 68 209 86 3 7 12 13 20 13 8 0 12 4 9 9 -3 5 0 9 7 8 29 -1 47 4
47 12 0 15 -482 4 -492 -11 -6 -10 -8 -10 -8 1 0 9 -8 12 -22 8 -13 -3 -34 -8
-47 -11 -13 -3 -33 1 -45 9 -19 14 -13 15 69 16 50 0 104 2 122 3 18 2 146 7
285 11 175 5 259 11 273 19 11 7 37 19 58 25 56 19 41 25 -68 30 -26 1 -28 3
-12 12 12 7 40 8 73 4 36 -4 54 -3 54 4 0 13 0 13 -65 17 -27 2 -72 5 -100 8
-27 2 -106 4 -175 5 -110 1 -123 3 -106 16 37 28 13 43 -87 50 -110 8 -145 -2
-126 -37 23 -44 2 -48 -266 -53 l-250 -4 -175 145 c-196 162 -312 252 -351
271 -15 7 -33 20 -40 29 -15 19 -63 44 -83 44 -11 0 -13 -9 -9 -40z m3703
-1260 c0 -5 -3 -10 -7 -11 -31 -4 -96 -9 -138 -12 -87 -6 -145 -19 -145 -32 0
-19 -107 -25 -148 -8 -25 10 -37 11 -47 3 -7 -6 -19 -10 -27 -9 -31 4 -41 -4
-13 -11 l30 -8 -32 -1 c-17 0 -33 5 -36 12 -3 9 -13 10 -46 1 -39 -11 -45 -10
-68 12 l-26 24 34 1 c19 0 151 11 294 23 299 27 375 30 375 16z m-2966 -246
c46 -109 114 -264 150 -343 36 -80 66 -149 66 -153 0 -4 -10 -8 -23 -8 -18 0
-26 8 -34 33 -6 17 -38 97 -70 177 -65 156 -187 479 -197 520 l-7 25 15 -26
c8 -14 53 -115 100 -225z m-1571 166 c12 -5 16 -9 10 -9 -7 -1 -13 -12 -13
-26 0 -14 3 -24 8 -24 4 1 9 1 12 0 3 -1 35 -3 73 -4 67 -3 77 3 57 33 -8 13
-10 12 -10 -4 0 -15 -3 -16 -15 -6 -8 7 -22 10 -30 6 -9 -3 -15 0 -15 9 0 7
-8 16 -17 18 -10 3 10 5 45 6 34 0 62 -3 62 -9 0 -5 7 -7 15 -4 8 3 27 -3 43
-15 l30 -21 -4 -97 c-5 -127 -11 -194 -18 -200 -5 -6 -261 12 -381 25 l-60 7
2 65 c1 36 5 109 9 162 l6 97 84 0 c46 0 94 -4 107 -9z m2186 -45 c-12 -32
-10 -44 19 -133 17 -53 36 -117 42 -142 25 -116 2 -473 -45 -696 -52 -248
-160 -417 -285 -449 -14 -3 -2 6 27 20 63 32 103 75 147 163 61 121 96 263
121 485 28 254 16 443 -40 606 -30 90 -31 116 -4 160 25 42 35 34 18 -14z
m-1531 -97 c7 -7 12 -39 12 -75 l0 -63 -44 0 c-72 0 -76 4 -76 74 0 35 3 66 7
69 11 12 88 8 101 -5z m2469 -15 c-3 -5 13 -8 36 -9 22 0 42 -5 45 -12 2 -7
21 -15 43 -18 21 -4 39 -10 39 -15 0 -5 3 -8 8 -8 4 1 25 0 47 -1 40 -2 40 -2
-23 -20 -79 -24 -135 -56 -205 -120 -124 -113 -240 -306 -298 -493 -17 -55
-45 -136 -61 -180 -25 -64 -33 -77 -42 -66 -6 8 -18 13 -27 11 -33 -6 -63 181
-38 245 6 15 22 71 37 123 22 82 26 115 26 245 1 145 2 151 26 182 51 64 166
115 295 132 97 12 97 12 92 4z m-2471 -156 c6 -6 8 -147 1 -153 -3 -3 -27 -3
-52 0 l-45 7 0 81 0 81 47 -7 c25 -3 48 -7 49 -9z m4687 -84 c22 -52 39 -121
32 -133 -3 -5 -1 -11 5 -15 7 -4 7 -12 0 -25 -7 -13 -7 -21 1 -26 8 -4 8 -9 0
-17 -7 -7 -7 -15 1 -25 9 -10 8 -16 -3 -23 -23 -15 -26 -11 -33 44 -9 70 -24
114 -41 121 -11 4 -15 23 -15 71 0 57 2 65 18 65 12 0 25 -14 35 -37z m-6425
-274 c3 -31 15 -48 35 -49 4 0 7 18 7 40 0 33 3 40 19 40 11 0 22 -4 25 -8 3
-5 18 -7 34 -4 16 2 33 -1 37 -8 4 -7 11 -8 18 -2 21 17 57 -5 57 -33 0 -16
-6 -25 -15 -25 -8 0 -15 -4 -15 -9 0 -12 44 -22 48 -11 2 6 10 10 18 10 21 0
17 18 -6 25 -19 6 -26 25 -14 37 11 11 46 -5 54 -26 9 -21 9 -21 9 2 1 15 7
22 21 22 25 0 36 -22 43 -87 7 -62 -10 -82 -19 -24 -4 23 -10 39 -14 36 -3 -2
-5 -18 -2 -34 4 -31 4 -31 -39 -27 -24 3 -45 10 -47 16 -3 9 -6 9 -12 0 -5 -8
-18 -10 -33 -6 -20 5 -27 14 -32 46 -8 50 -35 56 -35 7 0 -31 -2 -33 -41 -34
-26 -1 -42 3 -45 12 -5 11 -10 12 -25 2 -28 -17 -46 7 -54 77 -5 46 -4 57 7
54 7 -3 14 -20 16 -39z m6495 -89 c-10 -133 -64 -297 -110 -327 -29 -19 -42
-10 -20 15 21 23 22 39 2 22 -21 -18 -63 2 -70 32 -15 64 -21 120 -19 188 2
95 1 90 20 90 13 0 14 -3 5 -13 -6 -8 -8 -17 -4 -20 3 -4 8 -24 10 -45 2 -20
6 -43 8 -51 14 -37 75 74 75 135 0 38 71 73 83 42 3 -7 6 1 7 17 l2 30 7 -30
c4 -16 6 -55 4 -85z m-2073 -106 c0 -10 6 -14 15 -10 9 3 18 -1 21 -8 3 -8 14
-16 24 -19 13 -3 17 -11 13 -26 -4 -17 -1 -21 16 -21 18 0 20 -4 15 -25 -5
-19 -2 -25 11 -25 14 0 16 -6 11 -30 -4 -23 -2 -32 10 -37 9 -3 14 -13 11 -24
-3 -10 2 -27 10 -38 10 -15 11 -26 5 -38 -7 -12 -5 -24 5 -40 11 -16 12 -27 5
-36 -5 -7 -6 -21 -1 -32 17 -44 1 -58 -76 -72 -23 -4 -27 -2 -15 6 8 6 11 11
6 11 -5 0 1 12 15 26 l24 27 -23 -12 c-30 -16 -43 -4 -18 15 11 8 21 21 22 30
2 14 1 14 -15 0 -37 -33 -44 -5 -8 34 12 14 23 32 25 40 1 8 -7 3 -19 -12 -24
-32 -44 -37 -36 -9 3 12 -1 22 -11 26 -8 3 -12 8 -8 12 11 12 -65 73 -92 73
l-25 0 5 104 c3 57 8 108 11 113 3 4 19 9 36 10 22 2 31 -2 31 -13z m229 -554
c-25 -341 -190 -650 -346 -650 -48 0 -46 11 5 35 60 28 105 66 142 120 34 49
36 55 16 55 -16 0 -31 53 -21 70 4 6 14 2 26 -12 22 -25 22 -22 4 40 -6 20 -4
23 17 22 39 -4 40 -1 19 29 -27 38 -26 43 7 41 45 -3 47 -1 17 30 -32 33 -30
40 11 44 38 4 40 18 4 39 -41 24 -38 34 13 45 l42 9 -37 18 c-40 20 -49 39
-22 49 30 11 44 6 45 -16 0 -16 2 -18 6 -8 3 8 10 18 15 21 11 7 27 113 29
194 l2 60 7 -65 c4 -36 3 -112 -1 -170z m-178 23 c6 -55 5 -77 -7 -131 -18
-81 -54 -151 -99 -190 -39 -35 -57 -38 -94 -18 l-24 13 29 19 c68 42 105 95
133 189 24 80 43 125 52 125 5 0 9 -3 10 -7z m-291 -219 c0 -3 -4 -13 -10 -24
-7 -14 -6 -17 8 -16 11 1 16 -5 14 -16 -2 -10 2 -18 8 -18 5 0 10 -5 10 -10 0
-14 40 -54 68 -69 16 -8 21 -18 18 -34 -12 -56 -16 -158 -6 -152 5 3 10 21 10
38 1 27 2 29 11 14 6 -10 9 -24 6 -30 -2 -7 -1 -21 4 -32 7 -19 8 -19 8 2 1
12 4 29 8 38 5 15 8 14 19 -6 13 -24 13 -24 14 9 0 37 24 45 34 10 4 -18 -2
-29 -27 -50 -34 -29 -99 -50 -126 -41 -64 21 -83 35 -128 99 -43 59 -55 122
-27 144 8 8 20 23 25 34 6 12 -2 7 -18 -12 -35 -40 -43 -40 -43 1 0 25 10 42
47 78 43 42 73 59 73 43z"/>
</g>
</svg>
