<?xml version="1.0" standalone="no"?>
<!DOCTYPE svg PUBLIC "-//W3C//DTD SVG 20010904//EN"
 "http://www.w3.org/TR/2001/REC-SVG-20010904/DTD/svg10.dtd">
<svg version="1.0" xmlns="http://www.w3.org/2000/svg"
 width="709.000000pt" height="269.000000pt" viewBox="0 0 709.000000 269.000000"
 preserveAspectRatio="xMidYMid meet">
<metadata>
Created by potrace 1.16, written by Peter Selinger 2001-2019
</metadata>
<g transform="translate(0.000000,269.000000) scale(0.100000,-0.100000)"
fill="#000000" stroke="none">
<path d="M867 2504 c-181 -28 -348 -98 -468 -197 -218 -181 -236 -478 -38
-661 94 -87 193 -135 376 -182 59 -15 110 -29 111 -30 2 -1 -10 -23 -28 -49
-43 -62 -94 -175 -116 -255 -13 -46 -18 -101 -18 -185 0 -103 4 -131 27 -200
66 -200 233 -355 438 -406 72 -19 103 -21 219 -16 201 8 353 58 524 171 288
192 448 457 433 721 -7 143 -47 220 -139 271 -50 27 -60 29 -168 29 -94 0
-126 -4 -174 -23 -102 -38 -167 -83 -282 -197 -84 -84 -119 -127 -147 -181
-89 -172 -89 -333 -1 -370 72 -30 156 -5 180 52 18 44 18 98 -1 134 -18 36
-78 56 -119 40 -29 -11 -31 -7 -15 41 20 60 96 164 170 234 212 199 424 251
546 133 42 -40 57 -87 56 -168 -3 -125 -62 -265 -172 -402 -212 -268 -462
-407 -728 -408 -357 -1 -521 243 -423 627 22 83 98 248 152 328 l33 50 121 7
c358 20 832 165 1078 332 38 25 71 46 73 46 15 0 64 -137 74 -205 17 -123 17
-124 45 -131 88 -22 73 175 -24 332 l-31 49 45 45 c60 59 77 94 78 157 2 126
-120 182 -373 170 l-125 -6 -61 38 c-344 218 -778 320 -1128 265z m371 -124
c228 -18 486 -83 667 -169 l80 -38 -45 -12 c-436 -115 -696 -256 -925 -501
-39 -41 -84 -93 -101 -114 l-31 -39 -63 12 c-229 45 -397 147 -457 277 -33 73
-35 177 -5 247 56 125 235 252 434 307 139 38 250 45 446 30z m1167 -268 c37
-13 52 -24 59 -43 14 -40 -1 -92 -38 -134 l-33 -39 -69 74 c-38 40 -95 90
-127 111 -56 36 -57 38 -30 42 72 11 191 5 238 -11z m-287 -54 c31 -23 93 -77
136 -120 92 -91 93 -83 -26 -151 -162 -92 -506 -209 -754 -257 -100 -19 -324
-42 -333 -34 -7 6 177 182 259 248 121 96 266 190 389 252 98 50 228 101 259
103 7 1 39 -18 70 -41z"/>
<path d="M3330 763 c-39 -20 -60 -54 -60 -99 0 -40 31 -79 83 -105 78 -40 95
-69 59 -102 -23 -21 -62 -22 -109 -2 -45 19 -43 20 -43 -16 0 -25 6 -32 35
-45 65 -27 148 -12 189 34 10 12 21 41 23 65 6 53 -17 84 -91 125 -59 32 -76
54 -60 80 15 23 56 27 93 8 16 -9 32 -16 36 -16 12 0 4 59 -10 70 -26 22 -106
23 -145 3z"/>
<path d="M5345 766 c-71 -31 -111 -117 -102 -218 9 -103 59 -158 149 -166 35
-3 67 1 91 11 31 14 37 21 37 46 0 35 -4 36 -40 16 -47 -27 -113 -14 -139 27
-19 30 -25 120 -12 161 23 68 91 96 151 62 36 -20 40 -19 40 16 0 25 -6 32
-35 45 -42 17 -100 18 -140 0z"/>
<path d="M5665 766 c-85 -38 -126 -155 -94 -271 20 -74 79 -115 164 -115 117
0 185 79 185 215 0 60 -32 129 -73 159 -35 25 -138 33 -182 12z m132 -61 c31
-21 46 -78 40 -145 -5 -64 -20 -94 -54 -109 -59 -27 -114 -4 -133 55 -15 43
-8 141 11 172 26 41 96 55 136 27z"/>
<path d="M6040 763 c-39 -20 -60 -54 -60 -99 0 -40 31 -79 83 -105 78 -40 95
-69 59 -102 -23 -21 -62 -22 -109 -2 -45 19 -43 20 -43 -16 0 -25 6 -32 35
-45 65 -27 148 -12 189 34 10 12 21 41 23 65 6 53 -17 84 -91 125 -59 32 -76
54 -60 80 15 23 56 27 93 8 16 -9 32 -16 36 -16 12 0 4 59 -10 70 -26 22 -106
23 -145 3z"/>
<path d="M2400 580 l0 -190 40 0 40 0 0 80 0 80 70 0 70 0 0 -80 0 -80 40 0
40 0 0 190 0 190 -40 0 -40 0 0 -80 0 -80 -70 0 -70 0 0 80 0 80 -40 0 -40 0
0 -190z"/>
<path d="M2788 764 c-5 -4 -8 -90 -8 -191 l0 -183 40 0 40 0 0 75 c0 72 1 75
23 75 32 0 51 -24 78 -93 21 -56 23 -57 60 -57 22 0 39 4 39 10 0 17 -50 124
-67 142 -14 16 -13 19 12 40 20 17 28 36 32 69 5 41 2 50 -25 80 -30 33 -32
34 -124 37 -51 2 -96 0 -100 -4z"/>
<path d="M3120 580 l0 -190 40 0 40 0 0 190 0 190 -40 0 -40 0 0 -190z"/>
<path d="M3520 740 c0 -30 1 -30 55 -30 l55 0 0 -160 0 -160 40 0 40 0 0 160
0 160 55 0 c54 0 55 0 55 30 l0 30 -150 0 -150 0 0 -30z"/>
<path d="M3860 580 l0 -190 40 0 40 0 0 190 0 190 -40 0 -40 0 0 -190z"/>
<path d="M4097 728 c-8 -24 -38 -107 -66 -186 -53 -151 -53 -158 1 -150 17 2
27 14 38 46 l14 42 71 0 71 0 12 -45 c12 -44 13 -45 52 -45 22 0 40 3 40 8 0
4 -27 89 -61 190 l-62 182 -47 0 c-48 0 -48 -1 -63 -42z"/>
<path d="M4387 763 c-4 -3 -7 -89 -7 -190 l0 -183 35 0 35 0 0 146 0 145 73
-143 72 -143 45 0 45 0 3 188 2 187 -35 0 -35 0 0 -130 0 -130 -61 118 c-33
64 -65 123 -71 130 -11 12 -90 17 -101 5z"/>
<path d="M4977 728 c-8 -24 -38 -107 -66 -186 -53 -151 -53 -158 1 -150 17 2
27 14 38 46 l14 42 71 0 71 0 12 -45 c12 -44 13 -45 52 -45 22 0 40 3 40 8 0
4 -27 89 -61 190 l-62 182 -47 0 c-48 0 -48 -1 -63 -42z"/>
<path d="M6230 740 c0 -30 1 -30 55 -30 l55 0 0 -160 0 -160 40 0 40 0 0 160
0 160 55 0 c54 0 55 0 55 30 l0 30 -150 0 -150 0 0 -30z"/>
<path d="M6647 728 c-8 -24 -38 -107 -66 -186 -53 -151 -53 -158 1 -150 17 2
27 14 38 46 l14 42 71 0 71 0 12 -45 c12 -44 13 -45 52 -45 22 0 40 3 40 8 0
4 -27 89 -61 190 l-62 182 -47 0 c-48 0 -48 -1 -63 -42z"/>
</g>
</svg>
